<svg xmlns="http://www.w3.org/2000/svg" viewBox="0 0 400.51 147.97"><defs><style>.cls-1{fill:#fff;}</style></defs><g id="Layer_2" data-name="Layer 2"><g id="Layer_1-2" data-name="Layer 1"><path class="cls-1" d="M0,46.14V127.2a20.48,20.48,0,0,0,20.48,20.48h0V66.62h0L0,46.14Z"/><path class="cls-1" d="M24.48,0V19.44l9.86,9.86-9.86,9.86v78.37A20.48,20.48,0,0,0,45,97.05V0Z"/><rect class="cls-1" x="18" y="24.72" width="8.98" height="9.06" transform="translate(-14.09 24.47) rotate(-45)"/><path class="cls-1" d="M93.15,29.46,79.39,65.86H72L57.72,29.46h8.7l9.2,25.73,8.94-25.73Z"/><path class="cls-1" d="M120.86,51.72a18.54,18.54,0,0,1-.14,2.23H99.47c.66,3.83,3.17,5.94,6.86,5.94a6.65,6.65,0,0,0,6-3.26h8a14.62,14.62,0,0,1-28.5-4.81C91.76,43.36,98,37,106.33,37c8.62,0,14.54,6.64,14.54,14.73Zm-21.19-3h13.6a6.91,6.91,0,0,0-6.94-5.29A6.58,6.58,0,0,0,99.67,48.76Z"/><path class="cls-1" d="M152,48.84v17h-7.59V50.07c0-4.24-1.61-6.29-4.9-6.29-3.91,0-6.3,2.8-6.3,7.32V65.86h-7.59V37.78h5.21l1.48,3.47a12.05,12.05,0,0,1,9.3-4.14C148,37.11,152,41.73,152,48.84Z"/><path class="cls-1" d="M175.32,59.1v6.76h-5.4c-6.17,0-10-3.8-10-10V43.88h-5.08V42.24L166,30.45h1.45v7.33h7.75v6.1h-7.62V54.83c0,2.71,1.56,4.27,4.33,4.27Z"/><path class="cls-1" d="M179.49,54V37.78h7.59V53.14c0,4,2.12,6.38,5.62,6.38s5.58-2.44,5.58-6.38V37.78h7.59V54c0,7.59-5.22,12.66-13.17,12.66S179.49,61.59,179.49,54Z"/><path class="cls-1" d="M229,37.62v7.17h-3.29c-4.28,0-6,1.89-6,6.48V65.86h-7.59V37.78H217l1.35,3.44c2-2.48,4.54-3.6,8.15-3.6Z"/><path class="cls-1" d="M259.34,51.72a16.71,16.71,0,0,1-.15,2.23H237.94c.66,3.83,3.18,5.94,6.86,5.94a6.66,6.66,0,0,0,6-3.26h8a14.36,14.36,0,0,1-13.94,10c-8.29,0-14.56-6.41-14.56-14.83S236.47,37,244.8,37c8.63,0,14.54,6.64,14.54,14.73Zm-21.2-3h13.61a6.91,6.91,0,0,0-6.95-5.29A6.58,6.58,0,0,0,238.14,48.76Z"/><path class="cls-1" d="M264.22,29.46h7.87v36.4h-7.87Z"/><path class="cls-1" d="M289,66.65c-7,0-11.75-4-11.79-10h7.4c0,2.5,1.95,3.75,4.68,3.75,2.11,0,4-1,4-2.83s-2.43-2.5-5.4-3c-4.49-.74-10.19-1.94-10.19-8.56,0-5.32,4.51-9,11.29-9s11.23,3.78,11.26,9.39h-7.2c0-2.23-1.6-3.33-4.25-3.33-2.36,0-3.75,1.08-3.75,2.69,0,1.87,2.39,2.3,5.31,2.83,4.58.82,10.43,1.79,10.43,8.64,0,5.72-4.69,9.45-11.78,9.45Z"/><path class="cls-1" d="M322.57,37.62v7.17h-3.29c-4.28,0-6,1.89-6,6.48V65.86h-7.6V37.78h4.87l1.35,3.44c2-2.48,4.54-3.6,8.15-3.6Z"/><path class="cls-1" d="M354.22,37.74V65.82h-6l-.65-2.51a13.68,13.68,0,0,1-9.1,3.35,14.44,14.44,0,0,1-14.73-14.88A14.38,14.38,0,0,1,338.52,37a13.69,13.69,0,0,1,9.22,3.43l.81-2.68Zm-7.44,14a7.65,7.65,0,1,0-7.64,7.69A7.46,7.46,0,0,0,346.78,51.78Z"/><path class="cls-1" d="M388.14,51.72A18.54,18.54,0,0,1,388,54H366.74c.66,3.83,3.18,5.94,6.87,5.94a6.66,6.66,0,0,0,5.95-3.26h8a14.36,14.36,0,0,1-13.93,10c-8.3,0-14.57-6.41-14.57-14.83S365.27,37,373.61,37c8.62,0,14.53,6.64,14.53,14.73Zm-21.2-3h13.61a6.91,6.91,0,0,0-6.94-5.29A6.6,6.6,0,0,0,366.94,48.76Z"/><path class="cls-1" d="M392.92,27.66h7.59v38.2h-7.59Z"/><path class="cls-1" d="M89.33,78.38l-12.08,30.1H74.5L62.17,78.38h3.32l10.39,25.56L86,78.38Z"/><path class="cls-1" d="M93.23,77.26h3.33v3.62H93.23Zm.2,8h2.93v23.22H93.43Z"/><path class="cls-1" d="M101.53,101.62h2.86c.25,3,2.75,4.64,6.37,4.64s6.06-1.58,6.06-4.16c0-3.13-3.16-3.72-6.52-4.29-4-.69-8.33-1.47-8.33-6.49,0-3.9,3.45-6.55,8.58-6.55s8.44,2.7,8.61,7h-2.77c-.17-2.76-2.33-4.33-5.9-4.33s-5.68,1.53-5.68,3.83c0,2.79,2.88,3.27,6.2,3.81,4,.66,8.71,1.43,8.71,6.94,0,4.23-3.62,7-9,7S101.78,106.14,101.53,101.62Z"/><path class="cls-1" d="M124.79,77.26h3.33v3.62h-3.33Zm.2,8h2.93v23.22H125Z"/><path class="cls-1" d="M133.19,96.87A12.24,12.24,0,1,1,145.43,109,11.85,11.85,0,0,1,133.19,96.87Zm21.49,0a9.26,9.26,0,1,0-9.25,9.27A9,9,0,0,0,154.68,96.87Z"/><path class="cls-1" d="M183.21,94.63v13.85h-2.92V95.29c0-5-2.47-7.83-6.81-7.83a7.81,7.81,0,0,0-7.59,8.08v12.94H163V85.26h2.11l.59,4.11a9.81,9.81,0,0,1,8.54-4.6C179.74,84.77,183.21,88.85,183.21,94.63Z"/><path class="cls-1" d="M65.56,117.38h3v30.1h-3Z"/><path class="cls-1" d="M96.44,133.63v13.85H93.51V134.29c0-5-2.47-7.83-6.8-7.83a7.82,7.82,0,0,0-7.6,8.08v12.94H76.19V124.26H78.3l.58,4.11a9.83,9.83,0,0,1,8.55-4.6C93,123.77,96.44,127.85,96.44,133.63Z"/><path class="cls-1" d="M122.28,124.26l-10,23.22h-2.63L99.47,124.26h3.06L111,143.64l8.29-19.38Z"/><path class="cls-1" d="M147.28,137H126.87a9,9,0,0,0,16.73,3.58h3.09a11.56,11.56,0,0,1-11,7.42c-6.7,0-11.77-5.2-11.77-12.11s5.07-12.09,11.77-12.09c6.93,0,11.61,5.36,11.61,12.12C147.34,136.24,147.31,136.61,147.28,137Zm-20.35-2.71h17.51a8.54,8.54,0,0,0-8.71-7.71A8.64,8.64,0,0,0,126.93,134.26Z"/><path class="cls-1" d="M150.55,140.62h2.86c.25,3,2.75,4.64,6.36,4.64s6.07-1.58,6.07-4.16c0-3.13-3.16-3.72-6.53-4.29-4-.69-8.32-1.47-8.32-6.49,0-3.9,3.45-6.55,8.58-6.55s8.44,2.7,8.61,7h-2.77c-.17-2.76-2.33-4.33-5.9-4.33s-5.69,1.53-5.69,3.83c0,2.79,2.89,3.27,6.21,3.81,4,.66,8.71,1.43,8.71,6.94,0,4.23-3.63,7-9.06,7S150.8,145.14,150.55,140.62Z"/><path class="cls-1" d="M185.51,144.77v2.71h-2.9c-4.78,0-7.71-2.94-7.71-7.78V126.92h-4v-.58l6.41-6.61h.5v4.53h7.53v2.66h-7.53v12.69c0,3.3,1.84,5.16,5.15,5.16Z"/><path class="cls-1" d="M223.63,132.7v14.78h-2.91V133.57c0-4.4-2.16-7.11-5.7-7.11-3.78,0-6.71,3.36-6.72,7.93v13.09h-2.87V133.57c0-4.42-2.14-7.11-5.72-7.11-3.78,0-6.71,3.36-6.72,7.93v13.09h-2.93V124.26h2.14l.5,3.58a9.1,9.1,0,0,1,7.64-4.07,7.49,7.49,0,0,1,7.21,4.82,9.07,9.07,0,0,1,8-4.82C220.43,123.77,223.63,127.45,223.63,132.7Z"/><path class="cls-1" d="M251.9,137H231.49a9,9,0,0,0,16.73,3.58h3.09a11.56,11.56,0,0,1-11,7.42c-6.7,0-11.78-5.2-11.78-12.11a11.69,11.69,0,0,1,11.78-12.09c6.93,0,11.61,5.36,11.61,12.12C252,136.24,251.93,136.61,251.9,137Zm-20.35-2.71h17.51a8.83,8.83,0,0,0-17.51,0Z"/><path class="cls-1" d="M277.42,133.63v13.85H274.5V134.29c0-5-2.47-7.83-6.81-7.83a7.81,7.81,0,0,0-7.59,8.08v12.94h-2.93V124.26h2.12l.58,4.11a9.81,9.81,0,0,1,8.54-4.6C274,123.77,277.42,127.85,277.42,133.63Z"/><path class="cls-1" d="M295.67,144.77v2.71h-2.9c-4.77,0-7.71-2.94-7.71-7.78V126.92h-4v-.58l6.41-6.61h.5v4.53h7.53v2.66H288v12.69c0,3.3,1.83,5.16,5.14,5.16Z"/><path class="cls-1" d="M298.21,140.62h2.86c.25,3,2.75,4.64,6.37,4.64s6.06-1.58,6.06-4.16c0-3.13-3.16-3.72-6.52-4.29-4-.69-8.33-1.47-8.33-6.49,0-3.9,3.45-6.55,8.58-6.55s8.44,2.7,8.61,7h-2.77c-.17-2.76-2.33-4.33-5.9-4.33s-5.68,1.53-5.68,3.83c0,2.79,2.88,3.27,6.2,3.81,4,.66,8.71,1.43,8.71,6.94,0,4.23-3.62,7-9,7S298.46,145.14,298.21,140.62Z"/></g></g></svg>